<svg width="85" height="85" viewBox="0 0 85 85" fill="none" xmlns="http://www.w3.org/2000/svg">
<path d="M70 47C70 58.8741 57.1355 69 42.5 69C27.8645 69 15.5 58.3741 15.5 46.5C15.5 34.6259 28.3645 24.5 43 24.5C57.6355 24.5 70 35.1259 70 47Z" fill="url(#paint0_linear_196_14)"/>
<path d="M42.5 10.625C60.1021 10.625 74.375 23.3042 74.375 38.9583C74.375 54.6125 53.125 74.375 42.5 74.375C31.875 74.375 10.625 54.6125 10.625 38.9583C10.625 23.3042 24.8979 10.625 42.5 10.625ZM36.5146 38.7104C32.9021 32.9021 26.4563 30.3875 22.1354 33.0792C17.8146 35.7708 17.2479 42.6771 20.8604 48.4854C24.5083 54.2938 30.9542 56.8083 35.275 54.1167C39.5958 51.3542 40.1271 44.5188 36.5146 38.7104ZM48.4854 38.7104C44.8729 44.5188 45.4042 51.3542 49.725 54.1167C54.0458 56.8083 60.4917 54.2938 64.1396 48.4854C67.7521 42.6771 67.1854 35.7708 62.8646 33.0792C58.5438 30.3875 52.0979 32.9021 48.4854 38.7104ZM42.5 62.8646C35.4167 62.8646 33.6458 60.2083 33.6458 60.2083C33.6458 60.3146 35.4167 67.2917 42.5 67.2917C49.5833 67.2917 51.3542 60.2083 51.3542 60.2083C51.3542 60.2083 49.5833 62.8646 42.5 62.8646Z" fill="black"/>
<defs>
<linearGradient id="paint0_linear_196_14" x1="43" y1="71" x2="43" y2="28" gradientUnits="userSpaceOnUse">
<stop stop-color="#4BF6F6"/>
<stop offset="0.33" stop-color="#47D7F9"/>
<stop offset="0.66" stop-color="#6D82F7"/>
<stop offset="1" stop-color="#594899"/>
</linearGradient>
</defs>
</svg>
