<svg width="85" height="85" viewBox="0 0 85 85" fill="none" xmlns="http://www.w3.org/2000/svg">
<g clip-path="url(#clip0_202_33)">
<path d="M69.1121 26.0031C69.8098 27.8447 70.1746 29.7962 70.1816 31.7654C70.1816 44.2497 56.6596 52.052 45.8504 45.8081C43.3859 44.3844 41.3394 42.3373 39.9164 39.8724C38.4934 37.4075 37.744 34.6115 37.7435 31.7654C37.7435 19.9964 49.8844 12.1516 60.6156 16.9753C54.048 11.9511 46.0054 9.23577 37.7365 9.25094C16.9008 9.25803 0.0177083 26.1412 0 46.9804C0.00708333 67.816 16.9008 84.7097 37.7365 84.7168C58.5721 84.7026 75.4587 67.8124 75.4729 46.9804C75.48 39.5075 73.2664 32.2116 69.1121 26.0031ZM52.5619 16.5255C52.5619 29.0099 66.0769 36.8158 76.886 30.5718C79.3523 29.1487 81.4006 27.1014 82.8249 24.6358C84.2492 22.1701 84.9994 19.373 85 16.5255C85 4.03762 71.485 -3.75761 60.6687 2.47573C58.2056 3.90277 56.1604 5.9516 54.7377 8.41724C53.315 10.8829 52.5647 13.6789 52.5619 16.5255Z" fill="black"/>
<path d="M76.886 30.5718C66.0769 36.8158 52.5619 29.0099 52.5619 16.5255C52.5647 13.6789 53.315 10.8829 54.7377 8.41724C56.1604 5.9516 58.2056 3.90277 60.6687 2.47573C71.485 -3.75761 85 4.03762 85 16.5255C84.9994 19.373 84.2492 22.1701 82.8249 24.6358C81.4006 27.1014 79.3523 29.1487 76.886 30.5718Z" fill="url(#paint0_linear_202_33)"/>
</g>
<defs>
<linearGradient id="paint0_linear_202_33" x1="51.5" y1="2.5" x2="84" y2="31.5" gradientUnits="userSpaceOnUse">
<stop stop-color="#4BF6F6"/>
<stop offset="0.33" stop-color="#47D7F9"/>
<stop offset="0.66" stop-color="#6D82F7"/>
<stop offset="1" stop-color="#5644D9"/>
</linearGradient>
<clipPath id="clip0_202_33">
<rect width="85" height="85" fill="white"/>
</clipPath>
</defs>
</svg>
