<svg width="85" height="85" viewBox="0 0 85 85" fill="none" xmlns="http://www.w3.org/2000/svg">
<path d="M30.4059 26.0298C31.431 26.0304 32.4242 26.3863 33.2163 27.0371C34.0084 27.6878 34.5503 28.593 34.7498 29.5985C34.9492 30.604 34.7939 31.6476 34.3102 32.5514C33.8266 33.4552 33.0445 34.1634 32.0972 34.5552C31.15 34.9471 30.0962 34.9983 29.1154 34.7003C28.1346 34.4023 27.2874 33.7735 26.7183 32.9209C26.1491 32.0683 25.8932 31.0448 25.9941 30.0246C26.095 29.0045 26.5464 28.0509 27.2716 27.3264C27.6828 26.9143 28.1714 26.5877 28.7093 26.3651C29.2472 26.1426 29.8238 26.0287 30.4059 26.0298Z" fill="black"/>
<path d="M5.73734 8.31086C5.7381 8.3059 5.7381 8.30087 5.73734 8.29591C5.87773 7.68052 6.1873 7.1166 6.63113 6.66779C7.07496 6.21898 7.63538 5.90313 8.24916 5.75587C13.1964 4.54894 20.9792 5.83556 29.6038 9.28869C38.2963 12.775 46.4411 17.9215 51.9461 23.4365C53.7105 25.1918 55.3498 27.0685 56.8519 29.0529C60.559 28.8868 63.8246 29.4148 66.5754 30.6151C76.1612 34.8335 78.8988 45.6295 79.6276 50.0621C79.733 50.6919 79.6917 51.3376 79.5069 51.9489C79.3221 52.5601 78.9987 53.1205 78.5619 53.5863C78.1251 54.0522 77.5868 54.411 76.9887 54.6347C76.3906 54.8585 75.7489 54.9413 75.1136 54.8766H75.092L64.4139 53.7112C64.4006 53.8473 64.3857 53.9718 64.3741 54.0863C64.2369 55.3875 63.6566 56.602 62.7305 57.5262L57.5193 62.7407C56.5965 63.6682 55.3822 64.2492 54.0811 64.386L53.7242 64.4241L54.8863 75.089V75.1106C54.9457 75.6849 54.8845 76.2654 54.7068 76.8148C54.5291 77.3642 54.2387 77.8705 53.8542 78.3013C53.4696 78.7321 52.9994 79.0779 52.4736 79.3166C51.9479 79.5553 51.378 79.6817 50.8006 79.6876C50.5698 79.688 50.3393 79.6691 50.1117 79.6312C45.6541 78.914 34.8631 76.2096 30.6563 66.5724C29.466 63.8398 28.9397 60.5875 29.0874 56.887C27.0941 55.3883 25.2106 53.7488 23.4512 51.9813C17.9013 46.4596 12.7382 38.3813 9.28842 29.8149C5.85356 21.2883 4.5603 13.4474 5.73734 8.31086ZM23.511 37.3437C24.8751 38.7092 26.6135 39.6394 28.5064 40.0167C30.3993 40.394 32.3616 40.2014 34.145 39.4632C35.9284 38.7251 37.4528 37.4745 38.5254 35.8698C39.5979 34.2651 40.1704 32.3783 40.1704 30.4482C40.1704 28.5181 39.5979 26.6313 38.5254 25.0266C37.4528 23.4219 35.9284 22.1714 34.145 21.4332C32.3616 20.695 30.3993 20.5024 28.5064 20.8797C26.6135 21.257 24.8751 22.1872 23.511 23.5527C22.5967 24.4533 21.8706 25.5267 21.375 26.7105C20.8794 27.8943 20.6242 29.1649 20.6242 30.4482C20.6242 31.7316 20.8794 33.0021 21.375 34.1859C21.8706 35.3697 22.5967 36.4431 23.511 37.3437Z" fill="black"/>
<path d="M58.1172 64.1549C58.7596 64.0752 59.409 64.2328 59.9434 64.5981C61.0042 65.3236 62.07 66.0408 63.1458 66.7398C65.3223 68.1542 67.9254 65.6706 66.6321 63.4194L64.615 59.9331C64.3267 59.5113 64.1661 59.0152 64.1526 58.5044C64.1391 57.9935 64.2732 57.4897 64.5388 57.0531C64.8045 56.6166 65.1904 56.266 65.6503 56.0433C66.1103 55.8206 66.6247 55.7353 67.1318 55.7977C69.3706 56.0808 71.4515 57.1005 73.047 58.6963C73.6546 59.3056 75.5024 61.155 76.4968 68.2023C76.7798 70.2266 76.9582 72.2641 77.0314 74.3067C77.0404 74.6613 76.9785 75.014 76.849 75.3442C76.7196 75.6743 76.5254 75.9752 76.2778 76.2292C76.0303 76.4831 75.7344 76.6848 75.4076 76.8226C75.0808 76.9603 74.7297 77.0312 74.3751 77.0311H74.3087C72.2645 76.9586 70.2253 76.7813 68.1993 76.4998C61.1486 75.5037 59.2992 73.6543 58.6916 73.0467C57.0885 71.4505 56.0713 69.3598 55.8046 67.1133C55.7192 66.4144 55.9149 65.7101 56.3485 65.1554C56.7822 64.6007 57.4183 64.2408 58.1172 64.1549Z" fill="url(#paint0_linear_197_33)"/>
<defs>
<linearGradient id="paint0_linear_197_33" x1="61.5" y1="76.5" x2="78.5" y2="59.5" gradientUnits="userSpaceOnUse">
<stop stop-color="#4BF6F6"/>
<stop offset="0.325" stop-color="#47D7F9"/>
<stop offset="0.685" stop-color="#6D82F7"/>
<stop offset="1" stop-color="#5644D9"/>
</linearGradient>
</defs>
</svg>
