<svg width="85" height="85" viewBox="0 0 85 85" fill="none" xmlns="http://www.w3.org/2000/svg">
<path d="M42.5986 3.7814C37.5341 3.80963 32.7741 7.54863 29.2966 14.2354C29.2866 14.2537 29.275 14.2686 29.265 14.2874L7.56412 52.2634L7.52793 52.3257C3.48827 58.6804 2.63628 64.6713 5.14145 69.0725C7.64497 73.4713 13.2143 75.7339 20.6639 75.3655H64.6786C72.1281 75.7337 77.6973 73.4713 80.2011 69.0722C82.7066 64.6701 81.8563 58.6766 77.8146 52.3202L77.7781 52.2631L55.8435 14.1682C55.831 14.1438 55.8144 14.125 55.802 14.1008C52.3965 7.45417 47.6584 3.75368 42.5986 3.7814ZM42.5521 6.90997C44.8054 6.88806 46.9535 7.98492 48.8864 9.86173C50.8052 11.7256 52.6038 14.3878 54.3802 17.862L73.7524 51.5006L73.7889 51.5574C75.7922 54.7007 77.2039 57.5376 77.9235 60.1176C78.6477 62.7141 78.6772 65.1313 77.6745 67.163C76.6718 69.1947 74.6912 70.6244 72.0715 71.4274C69.4692 72.2253 66.168 72.4871 62.0431 72.2783H23.2264C19.4246 72.4704 16.2597 72.2517 13.6961 71.5312C11.1129 70.8052 9.06855 69.5146 7.92205 67.5625C6.77488 65.6101 6.63443 63.1796 7.28372 60.5221C7.92886 57.8817 9.33667 54.9277 11.4806 51.5625L30.6504 18.0377C30.6609 18.0177 30.6712 18.0008 30.6816 17.9806C32.4829 14.5125 34.2958 11.8385 36.2224 9.95486C38.1603 8.06012 40.2984 6.93188 42.5521 6.90997ZM42.583 10.0125C41.3373 10.0244 39.9657 10.6364 38.3911 12.1757C36.8164 13.7153 35.1222 16.1507 33.4056 19.4649L33.3898 19.4961L33.3742 19.522L21.6339 40.056L31.8647 40.0875L26.6767 37.0939L28.2279 34.4065L36.7053 39.3039C36.92 39.0674 37.1487 38.844 37.3902 38.6349L32.4874 30.1472L35.1747 28.5959L40.0826 37.0939C40.3789 36.9966 40.6852 36.9213 40.9957 36.8603V27.0345H44.098V36.8917C44.4008 36.957 44.6962 37.0405 44.9852 37.1407L49.9187 28.5959L52.601 30.1472L47.6516 38.7177C47.8747 38.9181 48.0861 39.1311 48.2848 39.3557L56.8656 34.4063L58.417 37.0938L49.836 42.0482C49.9308 42.3322 50.0088 42.6216 50.0696 42.9148H59.9734V46.0173H50.0696C50.009 46.3121 49.9311 46.6032 49.8362 46.8889L58.417 51.8381L56.8658 54.5203L48.2954 49.5763C48.095 49.8026 47.882 50.0173 47.6572 50.2195L52.6015 58.7849L49.9194 60.3361L44.9902 51.8014C44.6981 51.9024 44.4001 51.9856 44.0978 52.0504V61.8923H40.9953V52.0818C40.6846 52.0196 40.3779 51.9381 40.0773 51.8378L35.1745 60.3358L32.487 58.7845L37.395 50.2865C37.1585 50.0755 36.935 49.8503 36.7259 49.6122L28.2276 54.5199L26.6765 51.8378L31.7089 48.9327H16.56L14.1735 53.1038L14.1528 53.1403L14.132 53.1712C12.0796 56.3835 10.8237 59.1084 10.2979 61.2593C9.77262 63.4104 9.95757 64.8984 10.5991 65.9908C11.2407 67.0832 12.4506 67.9622 14.5366 68.5484C16.6229 69.1348 19.5212 69.3702 23.1488 69.1814L23.1903 69.1759H62.0845L62.126 69.1813C66.0662 69.386 69.0809 69.1036 71.1632 68.4651C73.2457 67.8267 74.3308 66.9175 74.8883 65.7881C75.4458 64.6588 75.5324 63.0945 74.9348 60.953C74.3376 58.8118 73.0571 56.1751 71.1373 53.171L71.1217 53.1402L71.101 53.109L51.6878 19.4128L51.6721 19.3767L51.6514 19.3402C49.9589 16.0183 48.2841 13.5987 46.728 12.0873C45.1716 10.5761 43.8286 10.0005 42.583 10.0125ZM42.474 39.8172C40.6799 39.8172 39.089 40.8802 38.3237 42.3699L37.893 43.2154L36.9384 43.2101L19.9321 43.1533L18.3965 45.8303H37.971L38.4118 46.65C39.1981 48.1208 40.7028 49.1246 42.4742 49.1246C45.0425 49.1246 47.1276 47.0394 47.1276 44.4712C47.1276 41.9024 45.0423 39.8172 42.474 39.8172Z" fill="black"/>
<path d="M38.3237 42.3699C39.089 40.8802 40.6799 39.8172 42.474 39.8172C45.0423 39.8172 47.1276 41.9024 47.1276 44.4712C47.1276 47.0394 45.0425 49.1246 42.4742 49.1246C40.7028 49.1246 39.1981 48.1208 38.4118 46.65L37.971 45.8303H18.3965L19.9321 43.1533L36.9384 43.2101L37.893 43.2154L38.3237 42.3699Z" fill="url(#paint0_linear_196_6)"/>
<defs>
<linearGradient id="paint0_linear_196_6" x1="47" y1="44.5" x2="19.5505" y2="45.6773" gradientUnits="userSpaceOnUse">
<stop stop-color="#5644D9"/>
<stop offset="0.34" stop-color="#6D82F7"/>
<stop offset="0.67" stop-color="#47D7F9"/>
<stop offset="1" stop-color="#4BF6F6"/>
</linearGradient>
</defs>
</svg>
