<svg width="85" height="85" viewBox="0 0 85 85" fill="none" xmlns="http://www.w3.org/2000/svg">
<circle cx="33.5" cy="51.5" r="16.5" fill="url(#paint0_linear_196_16)"/>
<path d="M47.8371 7.57194C47.2022 7.19968 46.4672 7.03444 45.7341 7.09918C45.001 7.16392 44.3062 7.45543 43.7465 7.93319L14.8606 32.5726C4.50479 42.9284 4.50479 59.7796 14.8606 70.1355C17.3237 72.6023 20.2499 74.5581 23.4713 75.8904C26.6926 77.2227 30.1455 77.9053 33.6315 77.8988C40.4456 77.8988 47.2669 75.2992 52.4625 70.1001L76.9106 44.9684C77.3956 44.4694 77.7229 43.8386 77.8516 43.1547C77.9803 42.4709 77.9046 41.7642 77.6341 41.1231C77.3636 40.4819 76.9102 39.9347 76.3306 39.5497C75.7509 39.1647 75.0707 38.9589 74.3748 38.9582H62.6837L77.4702 12.3461C77.8405 11.6735 77.9824 10.8988 77.8746 10.1385C77.7667 9.37831 77.415 8.67363 76.8723 8.13049C76.3295 7.58735 75.6251 7.23509 74.865 7.1267C74.1048 7.01831 73.33 7.15964 72.6571 7.52944L47.4758 21.519L49.5158 11.3226C49.6607 10.6005 49.5769 9.85114 49.276 9.1789C48.9751 8.50666 48.4721 7.94495 47.8371 7.57194ZM49.5831 51.354C49.5831 55.5809 47.904 59.6347 44.9151 62.6235C41.9263 65.6124 37.8725 67.2915 33.6456 67.2915C29.4187 67.2915 25.365 65.6124 22.3761 62.6235C19.3872 59.6347 17.7081 55.5809 17.7081 51.354C17.7081 45.7936 20.5662 40.9097 24.88 38.0586C24.8446 38.3561 24.7915 38.6501 24.7915 38.9582C24.7915 40.0066 25.0242 41.042 25.4729 41.9896C25.9216 42.9372 26.575 43.7733 27.3861 44.4377C28.1972 45.1021 29.1456 45.5782 30.1629 45.8315C31.1803 46.0849 32.2412 46.1093 33.2692 45.9029C34.2971 45.6965 35.2664 45.2645 36.1071 44.6381C36.9478 44.0116 37.639 43.2064 38.1307 42.2804C38.6224 41.3544 38.9025 40.3308 38.9506 39.2835C38.9988 38.2362 38.8139 37.1912 38.4092 36.224C44.8692 38.2569 49.5831 44.2211 49.5831 51.354Z" fill="black"/>
<defs>
<linearGradient id="paint0_linear_196_16" x1="33.5" y1="35" x2="33.5" y2="68" gradientUnits="userSpaceOnUse">
<stop stop-color="#4BF6F6"/>
<stop offset="0.33" stop-color="#47D7F9"/>
<stop offset="0.66" stop-color="#6D82F7"/>
<stop offset="1" stop-color="#5644D9"/>
</linearGradient>
</defs>
</svg>
