<svg width="85" height="85" viewBox="0 0 85 85" fill="none" xmlns="http://www.w3.org/2000/svg">
<path d="M42.5 4.48242C37.7961 4.48242 33.5097 5.9002 30.3339 8.28252C27.158 10.6642 25.0684 14.0904 25.0684 17.9297C25.0684 19.2917 25.3665 20.5109 25.8943 21.5779C26.2924 22.4395 26.8392 23.2203 27.5461 23.8618C27.7754 24.0618 28.0132 24.2518 28.259 24.4312C28.9765 24.9885 29.7867 25.4505 30.6618 25.8108C33.8951 27.1406 38.0171 27.4709 42.4998 27.4709C43.1272 27.4709 43.7468 27.4635 44.3587 27.4487C45.8142 27.4231 47.259 27.3424 48.6693 27.1643C50.7478 26.9186 52.663 26.4997 54.3379 25.8106C54.9246 25.5706 55.4887 25.2785 56.0233 24.9379C56.2588 24.8084 56.4909 24.6728 56.7193 24.5311C57.6722 23.838 58.4237 22.9083 58.9625 21.853C59.4854 20.8941 59.8179 19.8043 59.9068 18.5918C59.9426 18.231 59.9599 17.8683 59.9541 17.506C59.9432 17.5036 59.9323 17.5009 59.9215 17.498C59.7716 13.8344 57.7223 10.5749 54.666 8.28252C51.4902 5.90053 47.2037 4.48242 42.5 4.48242ZM42.5 7.4707C46.5983 7.4707 50.2808 8.72877 52.873 10.6731C55.4653 12.6172 56.9434 15.1672 56.9434 17.9297C56.9434 20.6922 55.7359 22.004 53.2009 23.047C50.6658 24.09 46.8192 24.483 42.5 24.483C38.1808 24.483 34.3342 24.09 31.7991 23.047C29.2641 22.004 28.0566 20.6922 28.0566 17.9297C28.0566 15.1672 29.5347 12.6172 32.127 10.6731C34.7192 8.7286 38.4017 7.4707 42.5 7.4707ZM36.2288 10.4171C35.2098 10.4261 34.122 10.835 33.2126 11.5507C31.3542 13.013 30.7378 15.3292 31.8355 16.7241C32.9332 18.1189 35.3295 18.0638 37.1875 16.6016C39.0457 15.139 39.6621 12.823 38.5643 11.4282C38.0471 10.7713 37.2096 10.4085 36.2288 10.4171ZM22.0693 18.3494C20.1804 18.9449 18.4262 19.6177 16.8336 20.3573C10.3673 23.3596 6.80664 27.3129 6.80664 31.2109C6.80664 35.109 10.3673 39.0623 16.8336 42.0645C23.3 45.0668 32.4184 46.9824 42.5 46.9824C52.5816 46.9824 61.6997 45.0666 68.1664 42.0645C74.6327 39.0623 78.1934 35.109 78.1934 31.2109C78.1934 27.3129 74.6327 23.3596 68.1664 20.3573C66.5837 19.6225 64.8414 18.9533 62.9659 18.361C62.8004 21.6974 61.2654 24.9493 58.4349 26.983L58.398 27.0096L58.3593 27.034C52.8036 30.5329 46.1857 30.5817 40.3021 30.3961C35.4395 30.2743 29.7795 29.8005 25.5639 26.0996L25.5556 26.092L25.5473 26.0845C23.2878 24.0406 22.1905 21.2251 22.0693 18.3494ZM70.2331 26.1903C71.5068 26.1979 72.7731 26.6236 73.7144 27.5649C74.8732 28.7234 75.2507 30.3745 75.0293 31.9253C74.8076 33.4759 74.0266 35.0002 72.7753 36.2517C71.5239 37.5031 69.9995 38.284 68.4489 38.5055C66.8983 38.727 65.247 38.3494 64.0884 37.1907C62.9296 36.0319 62.5524 34.3812 62.7738 32.8304C62.9953 31.2798 63.7761 29.7553 65.0275 28.5041C66.2789 27.2523 67.8033 26.4717 69.3539 26.2501C69.6451 26.2084 69.9389 26.1887 70.2331 26.1903ZM14.4449 26.5124C14.7387 26.5107 15.033 26.5313 15.3239 26.5728C16.8745 26.7944 18.3992 27.575 19.6506 28.8265C20.902 30.0779 21.6826 31.6022 21.9041 33.1532C22.1256 34.7037 21.748 36.3546 20.5893 37.5132C19.4308 38.672 17.7803 39.0489 16.2294 38.8274C14.6788 38.6056 13.1539 37.8252 11.9025 36.5737C10.6511 35.3223 9.87046 33.7976 9.64899 32.2469C9.42753 30.6961 9.80505 29.0454 10.9638 27.8868C11.9051 26.9452 13.1713 26.5198 14.4449 26.5124ZM70.3556 29.1763C70.1622 29.1693 69.9685 29.1801 69.777 29.2086C68.9486 29.3268 67.9638 29.7935 67.1407 30.6168C66.3173 31.4399 65.8508 32.4247 65.7322 33.2531C65.6139 34.0815 65.804 34.6805 66.2014 35.0776C66.5987 35.475 67.1975 35.6653 68.0262 35.5469C68.8547 35.4284 69.8388 34.9614 70.6621 34.1383C71.4852 33.3149 71.952 32.3309 72.0706 31.5025C72.1888 30.674 71.9985 30.0747 71.6012 29.6776C71.3032 29.3796 70.8922 29.1985 70.3556 29.1763ZM14.3222 29.4987C13.7856 29.5207 13.3742 29.7022 13.0764 30C12.6789 30.3975 12.4887 30.9961 12.6069 31.8245C12.7251 32.6533 13.1924 33.6379 14.0157 34.4612C14.8388 35.2846 15.8229 35.7511 16.6515 35.8695C17.4799 35.9879 18.0793 35.7978 18.4765 35.4003C18.8738 35.0031 19.0642 34.4042 18.9457 33.5758C18.8272 32.7474 18.3605 31.7626 17.5374 30.9395C16.714 30.1161 15.7295 29.6496 14.9011 29.5312C14.6938 29.502 14.5008 29.4909 14.3222 29.4987ZM42.5 35.0293C44.2697 35.0293 45.9 35.5556 47.1529 36.4952C48.4063 37.4352 49.3066 38.8692 49.3066 40.5078C49.3066 42.1464 48.4062 43.5804 47.1529 44.5204C45.9 45.4601 44.2697 45.9863 42.5 45.9863C40.7303 45.9863 39.1 45.4601 37.8471 44.5204C36.5937 43.5804 35.6934 42.1464 35.6934 40.5078C35.6934 38.8692 36.5938 37.4352 37.8471 36.4952C39.1 35.5556 40.7303 35.0293 42.5 35.0293ZM42.5 38.0176C41.3357 38.0176 40.3096 38.3835 39.64 38.8858C38.9705 39.3877 38.6816 39.9459 38.6816 40.5078C38.6816 41.0698 38.9705 41.6279 39.64 42.1298C40.3096 42.6322 41.3357 42.998 42.5 42.998C43.6643 42.998 44.6904 42.6322 45.3599 42.1298C46.0295 41.6279 46.3184 41.0698 46.3184 40.5078C46.3184 39.9459 46.0295 39.3877 45.3599 38.8858C44.6904 38.3833 43.6643 38.0176 42.5 38.0176ZM33.3525 49.4557L18.5937 79.6875H66.4063L51.6475 49.4557C48.7145 49.7922 45.6523 49.9707 42.5 49.9707C39.3477 49.9707 36.2855 49.7922 33.3525 49.4557Z" fill="black"/>
<path d="M18.5937 79.6875L33.3525 49.4557C36.2855 49.7922 39.3477 49.9707 42.5 49.9707C45.6523 49.9707 48.7145 49.7922 51.6475 49.4557L66.4063 79.6875H18.5937Z" fill="url(#paint0_linear_202_11)"/>
<path d="M33.2126 11.5507C34.122 10.835 35.2098 10.4261 36.2288 10.4171C37.2096 10.4085 38.0471 10.7713 38.5643 11.4282C39.6621 12.823 39.0457 15.139 37.1875 16.6016C35.3295 18.0638 32.9332 18.1189 31.8355 16.7241C30.7378 15.3292 31.3542 13.013 33.2126 11.5507Z" fill="url(#paint1_linear_202_11)"/>
<defs>
<linearGradient id="paint0_linear_202_11" x1="43" y1="80.5" x2="42.5" y2="48.5" gradientUnits="userSpaceOnUse">
<stop stop-color="#4BF6F6"/>
<stop offset="0.295" stop-color="#47D7F9"/>
<stop offset="0.635" stop-color="#6D82F7"/>
<stop offset="1" stop-color="#5644D9"/>
</linearGradient>
<linearGradient id="paint1_linear_202_11" x1="38.5" y1="10" x2="31" y2="17.5" gradientUnits="userSpaceOnUse">
<stop stop-color="#4BF6F6"/>
<stop offset="0.33" stop-color="#47D7F9"/>
<stop offset="0.66" stop-color="#6D82F7"/>
<stop offset="1" stop-color="#5644D9"/>
</linearGradient>
</defs>
</svg>
