<svg width="85" height="85" viewBox="0 0 85 85" fill="none" xmlns="http://www.w3.org/2000/svg">
<path d="M51.3541 80.3248V76.7832C58.2603 76.7832 64.1076 74.3902 68.8959 69.6042C73.6843 64.8182 76.0784 58.9709 76.0784 52.0623H79.6201C79.6201 55.9912 78.8811 59.6722 77.403 63.1053C75.925 66.5383 73.9133 69.5287 71.368 72.0763C68.8227 74.6239 65.8324 76.6356 62.397 78.1113C58.9616 79.587 55.2806 80.3225 51.3541 80.3248ZM51.3541 68.3398V64.7982C54.8957 64.7982 57.9038 63.5609 60.3782 61.0865C62.8527 58.6121 64.0899 55.604 64.0899 52.0623H67.6316C67.6316 56.5532 66.0414 60.3888 62.8609 63.5692C59.6805 66.7496 55.8449 68.3398 51.3541 68.3398ZM44.0866 55.9936L35.158 47.0828L30.1572 52.0836L39.153 60.9909L21.6997 78.4478L1.55469 58.3205L19.0293 40.8671L27.9401 49.863L32.9374 44.8621L24.0266 35.8875L35.2041 24.7171L44.1078 33.6457L49.1051 28.6448L40.1978 19.649L57.6334 2.21338L77.7607 22.3407L60.3251 39.7763L51.3293 30.869L46.3284 35.8663L55.3066 44.7736L44.0866 55.9936ZM6.60864 58.409L21.6997 73.5036L26.782 68.4213L11.6874 53.3302L6.60864 58.409ZM29.0203 66.1121L34.1026 61.0334L19.008 45.9388L13.9293 51.0211L29.0203 66.1121ZM45.1632 19.649L60.2578 34.74L65.3366 29.6613L50.2455 14.5703L45.1632 19.649ZM67.6457 27.4194L72.728 22.3407L57.6334 7.24609L52.5547 12.3284L67.6457 27.4194Z" fill="black"/>
<path d="M51.3541 76.7832V80.3248C55.2806 80.3225 58.9616 79.587 62.397 78.1113C65.8324 76.6356 68.8227 74.6239 71.368 72.0763C73.9133 69.5287 75.925 66.5383 77.403 63.1053C78.8811 59.6722 79.6201 55.9912 79.6201 52.0623H76.0784C76.0784 58.9709 73.6843 64.8182 68.8959 69.6042C64.1076 74.3902 58.2603 76.7832 51.3541 76.7832Z" fill="url(#paint0_linear_196_2)"/>
<path d="M51.3541 64.7982V68.3398C55.8449 68.3398 59.6805 66.7496 62.8609 63.5692C66.0414 60.3888 67.6316 56.5532 67.6316 52.0623H64.0899C64.0899 55.604 62.8527 58.6121 60.3782 61.0865C57.9038 63.5609 54.8957 64.7982 51.3541 64.7982Z" fill="url(#paint1_linear_196_2)"/>
<defs>
<linearGradient id="paint0_linear_196_2" x1="80" y1="50.5" x2="51" y2="81" gradientUnits="userSpaceOnUse">
<stop stop-color="#4BF6F6"/>
<stop offset="0.33" stop-color="#47D7F9"/>
<stop offset="0.66" stop-color="#241ECB"/>
<stop offset="1" stop-color="#5644D9"/>
</linearGradient>
<linearGradient id="paint1_linear_196_2" x1="71" y1="46" x2="49" y2="70.5" gradientUnits="userSpaceOnUse">
<stop stop-color="#4BF6F6"/>
<stop offset="0.33" stop-color="#47D7F9"/>
<stop offset="0.66" stop-color="#241ECB"/>
<stop offset="1" stop-color="#5644D9"/>
</linearGradient>
</defs>
</svg>
