<svg width="85" height="85" viewBox="0 0 85 85" fill="none" xmlns="http://www.w3.org/2000/svg">
<path d="M40.0824 4C36.9879 4.40242 34.1595 7.91365 33.9327 12.5481V12.5515C33.9226 12.75 33.9172 12.9487 33.9166 13.1475C33.9166 15.8638 34.8559 18.2652 36.2312 19.9239L37.9124 21.9514L35.3239 22.4384C33.5392 22.7745 32.2324 23.717 31.1116 25.257C30.7322 25.7783 30.3838 26.3704 30.064 27.0201C20.5115 25.9509 13.8094 23.5238 13.8094 20.7194C13.8094 17.8369 20.8895 15.4098 30.8675 14.4158C30.8317 13.9942 30.8138 13.5713 30.8139 13.1481C30.8139 13.0087 30.8179 12.8699 30.8217 12.7311C14.8128 13.855 3.04765 17.5704 3.04731 21.9798C3.04698 26.185 13.749 29.7593 28.626 31.0559C28.5945 31.1791 28.5606 31.2991 28.5304 31.4238C28.1386 33.0375 27.858 34.7806 27.6558 36.5752L27.6508 36.5756C27.5814 37.182 27.5213 37.7941 27.469 38.4094L27.4773 38.4086C27.2589 41.0278 27.1832 43.7011 27.1631 46.203H33.122L33.4732 50.9178C22.1443 50.0887 13.8096 47.4308 13.8096 44.3033C13.8096 42.1047 17.9318 40.1711 24.3134 38.936C24.3632 38.2626 24.423 37.5888 24.492 36.9169C11.8051 38.4697 3.04781 41.7593 3.04748 45.564C3.04715 50.2407 16.2806 54.1375 33.7766 54.9884L34.7628 68.2315C36.5059 68.6711 38.8866 68.9224 41.2402 68.9068C43.5296 68.8915 45.7616 68.6229 47.2915 68.2428L48.1652 54.987C65.648 54.1337 78.8673 50.2382 78.8673 45.564C78.8673 41.7435 70.0359 38.4428 57.2637 36.898C57.3142 37.5654 57.3562 38.2339 57.389 38.9018C63.8442 40.1353 68.0082 42.0843 68.0082 44.3033C68.0082 47.431 59.74 50.0889 48.4337 50.918L48.7441 46.2028H54.4185C54.4165 43.6938 54.3974 41.0115 54.247 38.3845L54.2523 38.3852C54.2173 37.7766 54.174 37.1686 54.1225 36.5613L54.1192 36.561C53.9631 34.7087 53.7262 32.9113 53.3645 31.254C53.3495 31.1867 53.3339 31.1206 53.3188 31.0537C68.1802 29.7545 78.8675 26.1822 78.8675 21.98C78.8675 17.5329 66.9017 13.7901 50.683 12.7019C50.6872 12.8505 50.6918 12.9987 50.6918 13.1481C50.6918 13.5632 50.6745 13.9732 50.6413 14.3778C60.7998 15.3467 68.0082 17.7994 68.0082 20.7196C68.0082 23.5095 61.4285 25.925 51.9837 27.003C51.65 26.2919 51.2765 25.6499 50.8611 25.0929C49.7273 23.5711 48.3605 22.6343 46.3555 22.3235L43.7137 21.9134L45.38 19.8233C46.5301 18.3806 47.3575 16.3843 47.5476 14.1343C47.5747 13.8105 47.5895 13.4818 47.5895 13.1485C47.5895 13.0206 47.5858 12.8941 47.5815 12.7683C47.5791 12.6886 47.5759 12.6092 47.572 12.5302C47.3263 7.59208 44.1672 4.01361 40.7525 4.01361C40.3328 4.01361 40.094 3.99917 40.0834 4.00033L40.0824 4ZM30.9857 59.3006C14.864 60.4055 3 64.1334 3 68.5643C3 73.8655 19.9739 78.1625 40.9125 78.1625C61.8511 78.1625 78.8248 73.8657 78.8248 68.5645C78.8248 64.1472 67.0344 60.4291 50.989 59.3114L50.8802 60.96C60.9014 61.9652 67.9921 64.439 67.9921 67.334C67.9921 71.1208 55.8677 74.1901 40.9117 74.1901C25.9556 74.1901 13.8312 71.1205 13.8312 67.3342C13.8312 64.4234 20.9997 61.9383 31.1084 60.9437L30.9857 59.3006Z" fill="black"/>
<path d="M40.0824 4C36.9879 4.40242 34.1595 7.91365 33.9327 12.5481V12.5515C33.9226 12.75 33.9172 12.9487 33.9166 13.1475C33.9166 15.8638 34.8559 18.2652 36.2312 19.9239L37.9124 21.9514L35.3239 22.4384C33.5392 22.7745 32.2324 23.717 31.1116 25.257C30.7322 25.7783 30.3838 26.3704 30.064 27.0201C20.5115 25.9509 13.8094 23.5238 13.8094 20.7194C13.8094 17.8369 20.8895 15.4098 30.8675 14.4158C30.8317 13.9942 30.8138 13.5713 30.8139 13.1481C30.8139 13.0087 30.8179 12.8699 30.8217 12.7311C14.8128 13.855 3.04765 17.5704 3.04731 21.9798C3.04698 26.185 13.749 29.7593 28.626 31.0559C28.5945 31.1791 28.5606 31.2991 28.5304 31.4238C28.1386 33.0375 27.858 34.7806 27.6558 36.5752L27.6508 36.5756C27.5814 37.182 27.5213 37.7941 27.469 38.4094L27.4773 38.4086C27.2589 41.0278 27.1832 43.7011 27.1631 46.203H33.122L33.4732 50.9178C22.1443 50.0887 13.8096 47.4308 13.8096 44.3033C13.8096 42.1047 17.9318 40.1711 24.3134 38.936C24.3632 38.2626 24.423 37.5888 24.492 36.9169C11.8051 38.4697 3.04781 41.7593 3.04748 45.564C3.04715 50.2407 16.2806 54.1375 33.7766 54.9884L34.7628 68.2315C36.5059 68.6711 38.8866 68.9224 41.2402 68.9068C43.5296 68.8915 45.7616 68.6229 47.2915 68.2428L48.1652 54.987C65.648 54.1337 78.8673 50.2382 78.8673 45.564C78.8673 41.7435 70.0359 38.4428 57.2637 36.898C57.3142 37.5654 57.3562 38.2339 57.389 38.9018C63.8442 40.1353 68.0082 42.0843 68.0082 44.3033C68.0082 47.431 59.74 50.0889 48.4337 50.918L48.7441 46.2028H54.4185C54.4165 43.6938 54.3974 41.0115 54.247 38.3845L54.2523 38.3852C54.2173 37.7766 54.174 37.1686 54.1225 36.5613L54.1192 36.561C53.9631 34.7087 53.7262 32.9113 53.3645 31.254C53.3495 31.1867 53.3339 31.1206 53.3188 31.0537C68.1802 29.7545 78.8675 26.1822 78.8675 21.98C78.8675 17.5329 66.9017 13.7901 50.683 12.7019C50.6872 12.8505 50.6918 12.9987 50.6918 13.1481C50.6918 13.5632 50.6745 13.9732 50.6413 14.3778C60.7998 15.3467 68.0082 17.7994 68.0082 20.7196C68.0082 23.5095 61.4285 25.925 51.9837 27.003C51.65 26.2919 51.2765 25.6499 50.8611 25.0929C49.7273 23.5711 48.3605 22.6343 46.3555 22.3235L43.7137 21.9134L45.38 19.8233C46.5301 18.3806 47.3575 16.3843 47.5476 14.1343C47.5747 13.8105 47.5895 13.4818 47.5895 13.1485C47.5895 13.0206 47.5858 12.8941 47.5815 12.7683C47.5791 12.6886 47.5759 12.6092 47.572 12.5302C47.3263 7.59208 44.1672 4.01361 40.7525 4.01361C40.3328 4.01361 40.094 3.99917 40.0834 4.00033L40.0824 4ZM30.9857 59.3006C14.864 60.4055 3 64.1334 3 68.5643C3 73.8655 19.9739 78.1625 40.9125 78.1625C61.8511 78.1625 78.8248 73.8657 78.8248 68.5645C78.8248 64.1472 67.0344 60.4291 50.989 59.3114L50.8802 60.96C60.9014 61.9652 67.9921 64.439 67.9921 67.334C67.9921 71.1208 55.8677 74.1901 40.9117 74.1901C25.9556 74.1901 13.8312 71.1205 13.8312 67.3342C13.8312 64.4234 20.9997 61.9383 31.1084 60.9437L30.9857 59.3006Z" fill="black"/>
<path d="M3 22.0319C3 17.601 14.864 13.8731 30.9857 12.7683L31.1084 14.4113C20.9997 15.4059 13.8312 17.891 13.8312 20.8018C13.8312 24.5881 25.9556 27.6577 40.9117 27.6577C55.8677 27.6577 67.9921 24.5884 67.9921 20.8016C67.9921 17.9066 60.713 15.3878 50.6918 14.3826L50.6877 13.5L50.683 12.7019C66.7284 13.8195 78.8248 17.6148 78.8248 22.0321C78.8248 27.3333 61.851 31.6301 40.9125 31.6301C19.9739 31.6301 3 27.3332 3 22.0319Z" fill="url(#paint0_linear_196_4)"/>
<path d="M3 68.5751C3 64.1442 14.864 60.4163 30.9857 59.3114L31.1084 60.9545C20.9997 61.9491 13.8312 64.4342 13.8312 67.3449C13.8312 71.1312 25.9556 74.2009 40.9117 74.2009C55.8677 74.2009 67.9921 71.1316 67.9921 67.3448C67.9921 64.4498 60.9014 61.976 50.8802 60.9708L50.989 59.3222C67.0344 60.4398 78.8248 64.1579 78.8248 68.5753C78.8248 73.8765 61.851 78.1733 40.9125 78.1733C19.9739 78.1733 3 73.8763 3 68.5751Z" fill="url(#paint1_linear_196_4)"/>
<path d="M3.04748 45.4118C3.04748 40.9808 14.9115 37.2529 31.0332 36.1481L31.1559 37.7911C21.0472 38.7857 13.8787 41.2708 13.8787 44.1816C13.8787 47.9679 26.0031 51.0375 40.9591 51.0375C55.9152 51.0375 68.0396 47.9682 68.0396 44.1814C68.0396 41.2864 60.9489 38.8126 50.9277 37.8074L51.0365 36.1589C67.0819 37.2765 78.8723 40.9946 78.8723 45.4119C78.8723 50.7131 61.8985 55.0099 40.96 55.0099C20.0214 55.0099 3.04748 50.713 3.04748 45.4118Z" fill="url(#paint2_linear_196_4)"/>
<path d="M50 36H54L54.3 39H50V36Z" fill="black"/>
<path d="M32 36H27.7L27.5 39H32V36Z" fill="black"/>
<defs>
<linearGradient id="paint0_linear_196_4" x1="40.9361" y1="4" x2="40.9361" y2="78.1733" gradientUnits="userSpaceOnUse">
<stop stop-color="#4BF6F6"/>
<stop offset="0.33" stop-color="#47D7F9"/>
<stop offset="0.675" stop-color="#6D82F7"/>
<stop offset="1" stop-color="#5644D9"/>
</linearGradient>
<linearGradient id="paint1_linear_196_4" x1="40.9361" y1="4" x2="40.9361" y2="78.1733" gradientUnits="userSpaceOnUse">
<stop stop-color="#4BF6F6"/>
<stop offset="0.33" stop-color="#47D7F9"/>
<stop offset="0.675" stop-color="#6D82F7"/>
<stop offset="1" stop-color="#5644D9"/>
</linearGradient>
<linearGradient id="paint2_linear_196_4" x1="40.9361" y1="4" x2="40.9361" y2="78.1733" gradientUnits="userSpaceOnUse">
<stop stop-color="#4BF6F6"/>
<stop offset="0.33" stop-color="#47D7F9"/>
<stop offset="0.675" stop-color="#6D82F7"/>
<stop offset="1" stop-color="#5644D9"/>
</linearGradient>
</defs>
</svg>
